<mxfile host="app.diagrams.net" modified="2023-07-14T13:44:03.665Z" agent="Mozilla/5.0 (X11; Ubuntu; Linux x86_64; rv:100.0) Gecko/20100101 Firefox/100.0" etag="Ec0RMBbSlGvsARvVl8bn" version="21.6.2" type="github">
  <diagram name="PÃ¡gina-1" id="OHfnPg6nIuEYZed1UYO_">
    <mxGraphModel dx="880" dy="595" grid="1" gridSize="10" guides="1" tooltips="1" connect="1" arrows="1" fold="1" page="1" pageScale="1" pageWidth="827" pageHeight="1169" math="0" shadow="0">
      <root>
        <mxCell id="0" />
        <mxCell id="1" parent="0" />
        <mxCell id="A1MxKTXa6I1H9u6osK8T-3" value="" style="edgeStyle=orthogonalEdgeStyle;rounded=0;orthogonalLoop=1;jettySize=auto;html=1;" edge="1" parent="1" source="A1MxKTXa6I1H9u6osK8T-1" target="A1MxKTXa6I1H9u6osK8T-2">
          <mxGeometry relative="1" as="geometry" />
        </mxCell>
        <mxCell id="A1MxKTXa6I1H9u6osK8T-1" value="&lt;div&gt;Generate as blank spaces as the word has&lt;/div&gt;" style="rounded=1;whiteSpace=wrap;html=1;" vertex="1" parent="1">
          <mxGeometry x="350" y="108" width="120" height="60" as="geometry" />
        </mxCell>
        <mxCell id="A1MxKTXa6I1H9u6osK8T-24" value="" style="edgeStyle=orthogonalEdgeStyle;rounded=0;orthogonalLoop=1;jettySize=auto;html=1;exitX=0.5;exitY=1;exitDx=0;exitDy=0;" edge="1" parent="1" source="A1MxKTXa6I1H9u6osK8T-2" target="A1MxKTXa6I1H9u6osK8T-23">
          <mxGeometry relative="1" as="geometry" />
        </mxCell>
        <mxCell id="A1MxKTXa6I1H9u6osK8T-2" value="&lt;div&gt;Ask a player&lt;/div&gt;&lt;div&gt;a letter&lt;br&gt;&lt;/div&gt;" style="rounded=1;whiteSpace=wrap;html=1;" vertex="1" parent="1">
          <mxGeometry x="350" y="200" width="120" height="60" as="geometry" />
        </mxCell>
        <mxCell id="A1MxKTXa6I1H9u6osK8T-22" style="edgeStyle=orthogonalEdgeStyle;rounded=0;orthogonalLoop=1;jettySize=auto;html=1;exitX=0.5;exitY=1;exitDx=0;exitDy=0;entryX=0.5;entryY=0;entryDx=0;entryDy=0;" edge="1" parent="1" source="A1MxKTXa6I1H9u6osK8T-20" target="A1MxKTXa6I1H9u6osK8T-1">
          <mxGeometry relative="1" as="geometry" />
        </mxCell>
        <mxCell id="A1MxKTXa6I1H9u6osK8T-20" value="&lt;div&gt;Generate a&lt;/div&gt;&lt;div&gt;random word&lt;/div&gt;" style="rounded=1;whiteSpace=wrap;html=1;" vertex="1" parent="1">
          <mxGeometry x="350" y="20" width="120" height="60" as="geometry" />
        </mxCell>
        <mxCell id="A1MxKTXa6I1H9u6osK8T-30" value="" style="edgeStyle=orthogonalEdgeStyle;rounded=0;orthogonalLoop=1;jettySize=auto;html=1;" edge="1" parent="1" source="A1MxKTXa6I1H9u6osK8T-23" target="A1MxKTXa6I1H9u6osK8T-29">
          <mxGeometry relative="1" as="geometry" />
        </mxCell>
        <mxCell id="A1MxKTXa6I1H9u6osK8T-32" value="" style="edgeStyle=orthogonalEdgeStyle;rounded=0;orthogonalLoop=1;jettySize=auto;html=1;" edge="1" parent="1" source="A1MxKTXa6I1H9u6osK8T-23" target="A1MxKTXa6I1H9u6osK8T-31">
          <mxGeometry relative="1" as="geometry" />
        </mxCell>
        <mxCell id="A1MxKTXa6I1H9u6osK8T-23" value="&lt;div&gt;Is the letter&lt;/div&gt;&lt;div&gt;in the word?&lt;br&gt;&lt;/div&gt;" style="rounded=1;whiteSpace=wrap;html=1;" vertex="1" parent="1">
          <mxGeometry x="350" y="290" width="120" height="60" as="geometry" />
        </mxCell>
        <mxCell id="A1MxKTXa6I1H9u6osK8T-47" value="" style="edgeStyle=orthogonalEdgeStyle;rounded=0;orthogonalLoop=1;jettySize=auto;html=1;" edge="1" parent="1" source="A1MxKTXa6I1H9u6osK8T-29" target="A1MxKTXa6I1H9u6osK8T-46">
          <mxGeometry relative="1" as="geometry" />
        </mxCell>
        <mxCell id="A1MxKTXa6I1H9u6osK8T-29" value="&lt;div&gt;Replace a&lt;/div&gt;&lt;div&gt;blank space&lt;br&gt;&lt;/div&gt;" style="rounded=1;whiteSpace=wrap;html=1;" vertex="1" parent="1">
          <mxGeometry x="220" y="360" width="120" height="60" as="geometry" />
        </mxCell>
        <mxCell id="A1MxKTXa6I1H9u6osK8T-44" value="" style="edgeStyle=orthogonalEdgeStyle;rounded=0;orthogonalLoop=1;jettySize=auto;html=1;" edge="1" parent="1" source="A1MxKTXa6I1H9u6osK8T-31" target="A1MxKTXa6I1H9u6osK8T-43">
          <mxGeometry relative="1" as="geometry" />
        </mxCell>
        <mxCell id="A1MxKTXa6I1H9u6osK8T-31" value="&lt;div&gt;One part of the&lt;/div&gt;&lt;div&gt;body apear&lt;br&gt;&lt;/div&gt;" style="rounded=1;whiteSpace=wrap;html=1;" vertex="1" parent="1">
          <mxGeometry x="480" y="360" width="120" height="60" as="geometry" />
        </mxCell>
        <mxCell id="A1MxKTXa6I1H9u6osK8T-33" value="&lt;div&gt;Complete&lt;/div&gt;" style="rounded=1;whiteSpace=wrap;html=1;" vertex="1" parent="1">
          <mxGeometry x="350" y="520" width="120" height="60" as="geometry" />
        </mxCell>
        <mxCell id="A1MxKTXa6I1H9u6osK8T-41" value="Yes" style="text;html=1;align=center;verticalAlign=middle;resizable=0;points=[];autosize=1;strokeColor=none;fillColor=none;" vertex="1" parent="1">
          <mxGeometry x="230" y="330" width="40" height="30" as="geometry" />
        </mxCell>
        <mxCell id="A1MxKTXa6I1H9u6osK8T-42" value="&lt;div&gt;No&lt;/div&gt;" style="text;html=1;align=center;verticalAlign=middle;resizable=0;points=[];autosize=1;strokeColor=none;fillColor=none;" vertex="1" parent="1">
          <mxGeometry x="550" y="330" width="40" height="30" as="geometry" />
        </mxCell>
        <mxCell id="A1MxKTXa6I1H9u6osK8T-45" style="edgeStyle=orthogonalEdgeStyle;rounded=0;orthogonalLoop=1;jettySize=auto;html=1;exitX=0.5;exitY=1;exitDx=0;exitDy=0;entryX=1;entryY=0.5;entryDx=0;entryDy=0;" edge="1" parent="1" source="A1MxKTXa6I1H9u6osK8T-43" target="A1MxKTXa6I1H9u6osK8T-33">
          <mxGeometry relative="1" as="geometry" />
        </mxCell>
        <mxCell id="A1MxKTXa6I1H9u6osK8T-51" style="edgeStyle=orthogonalEdgeStyle;rounded=0;orthogonalLoop=1;jettySize=auto;html=1;exitX=1;exitY=0.5;exitDx=0;exitDy=0;entryX=1;entryY=0.5;entryDx=0;entryDy=0;" edge="1" parent="1" source="A1MxKTXa6I1H9u6osK8T-43" target="A1MxKTXa6I1H9u6osK8T-2">
          <mxGeometry relative="1" as="geometry" />
        </mxCell>
        <mxCell id="A1MxKTXa6I1H9u6osK8T-43" value="&lt;div&gt;Have 5 parts of&lt;/div&gt;&lt;div&gt;the body = Lost&lt;br&gt;&lt;/div&gt;" style="rounded=1;whiteSpace=wrap;html=1;" vertex="1" parent="1">
          <mxGeometry x="480" y="460" width="120" height="60" as="geometry" />
        </mxCell>
        <mxCell id="A1MxKTXa6I1H9u6osK8T-48" style="edgeStyle=orthogonalEdgeStyle;rounded=0;orthogonalLoop=1;jettySize=auto;html=1;exitX=0.5;exitY=1;exitDx=0;exitDy=0;entryX=0;entryY=0.5;entryDx=0;entryDy=0;" edge="1" parent="1" source="A1MxKTXa6I1H9u6osK8T-46" target="A1MxKTXa6I1H9u6osK8T-33">
          <mxGeometry relative="1" as="geometry" />
        </mxCell>
        <mxCell id="A1MxKTXa6I1H9u6osK8T-52" style="edgeStyle=orthogonalEdgeStyle;rounded=0;orthogonalLoop=1;jettySize=auto;html=1;exitX=0;exitY=0.5;exitDx=0;exitDy=0;entryX=0;entryY=0.5;entryDx=0;entryDy=0;" edge="1" parent="1" source="A1MxKTXa6I1H9u6osK8T-46" target="A1MxKTXa6I1H9u6osK8T-2">
          <mxGeometry relative="1" as="geometry" />
        </mxCell>
        <mxCell id="A1MxKTXa6I1H9u6osK8T-46" value="&lt;div&gt;All blank spaces&lt;/div&gt;&lt;div&gt;full = Win&lt;/div&gt;" style="rounded=1;whiteSpace=wrap;html=1;" vertex="1" parent="1">
          <mxGeometry x="220" y="460" width="120" height="60" as="geometry" />
        </mxCell>
        <mxCell id="A1MxKTXa6I1H9u6osK8T-49" value="Yes" style="text;html=1;align=center;verticalAlign=middle;resizable=0;points=[];autosize=1;strokeColor=none;fillColor=none;" vertex="1" parent="1">
          <mxGeometry x="500" y="520" width="40" height="30" as="geometry" />
        </mxCell>
        <mxCell id="A1MxKTXa6I1H9u6osK8T-50" value="Yes" style="text;html=1;align=center;verticalAlign=middle;resizable=0;points=[];autosize=1;strokeColor=none;fillColor=none;" vertex="1" parent="1">
          <mxGeometry x="280" y="520" width="40" height="30" as="geometry" />
        </mxCell>
        <mxCell id="A1MxKTXa6I1H9u6osK8T-53" value="&lt;div&gt;No&lt;/div&gt;&lt;div&gt;&lt;br&gt;&lt;/div&gt;" style="text;html=1;align=center;verticalAlign=middle;resizable=0;points=[];autosize=1;strokeColor=none;fillColor=none;" vertex="1" parent="1">
          <mxGeometry x="620" y="470" width="40" height="40" as="geometry" />
        </mxCell>
        <mxCell id="A1MxKTXa6I1H9u6osK8T-54" value="&lt;div&gt;No&lt;/div&gt;" style="text;html=1;align=center;verticalAlign=middle;resizable=0;points=[];autosize=1;strokeColor=none;fillColor=none;" vertex="1" parent="1">
          <mxGeometry x="160" y="475" width="40" height="30" as="geometry" />
        </mxCell>
      </root>
    </mxGraphModel>
  </diagram>
</mxfile>
